<svg xmlns="http://www.w3.org/2000/svg" viewBox="0 0 120 120" fill="none">
  <circle cx="60" cy="60" r="60" fill="#FFE0B2"/>
  <!-- striped shirt -->
  <path d="M38 88 Q38 74 60 70 Q82 74 82 88 L82 120 L38 120Z" fill="white"/>
  <line x1="38" y1="80" x2="82" y2="80" stroke="#1E40AF" stroke-width="3"/>
  <line x1="38" y1="86" x2="82" y2="86" stroke="#1E40AF" stroke-width="3"/>
  <line x1="38" y1="92" x2="82" y2="92" stroke="#1E40AF" stroke-width="3"/>
  <line x1="38" y1="98" x2="82" y2="98" stroke="#1E40AF" stroke-width="3"/>
  <!-- v-neck -->
  <path d="M52 72 L60 82 L68 72" fill="#1E40AF"/>
  <!-- neck -->
  <rect x="54" y="66" width="12" height="8" rx="3" fill="#B8835A"/>
  <!-- head -->
  <circle cx="60" cy="48" r="24" fill="#B8835A"/>
  <!-- hair -->
  <path d="M38 44 Q38 26 60 24 Q82 26 82 44 Q78 30 60 28 Q42 30 38 44Z" fill="#2D1B0E"/>
  <!-- sailor cap -->
  <ellipse cx="60" cy="30" rx="22" ry="6" fill="white"/>
  <path d="M38 30 Q38 18 60 16 Q82 18 82 30" fill="white"/>
  <rect x="38" y="28" width="44" height="4" fill="#1E40AF"/>
  <!-- cap emblem -->
  <circle cx="60" cy="22" r="4" fill="#FBBF24"/>
  <!-- eyes -->
  <circle cx="52" cy="46" r="2.5" fill="#1E293B"/>
  <circle cx="68" cy="46" r="2.5" fill="#1E293B"/>
  <!-- beard -->
  <path d="M42 54 Q44 66 60 68 Q76 66 78 54" fill="#2D1B0E"/>
  <!-- smile in beard -->
  <path d="M52 58 Q60 64 68 58" stroke="#B8835A" stroke-width="2" stroke-linecap="round" fill="none"/>
</svg>