<svg xmlns="http://www.w3.org/2000/svg" viewBox="0 0 120 120" fill="none">
  <circle cx="60" cy="60" r="60" fill="#EDE9FE"/>
  <!-- body/shirt -->
  <path d="M38 88 Q38 74 60 70 Q82 74 82 88 L82 120 L38 120Z" fill="#6366F1"/>
  <!-- neck -->
  <rect x="54" y="66" width="12" height="8" rx="3" fill="#B8835A"/>
  <!-- head -->
  <circle cx="60" cy="48" r="24" fill="#B8835A"/>
  <!-- hair - long dark hair -->
  <path d="M36 44 Q36 24 60 22 Q84 24 84 44 L84 52 Q80 40 60 38 Q40 40 36 52Z" fill="#2D1B0E"/>
  <path d="M36 44 L36 62 Q36 56 40 52" fill="#2D1B0E"/>
  <path d="M84 44 L84 62 Q84 56 80 52" fill="#2D1B0E"/>
  <!-- glasses -->
  <rect x="44" y="42" rx="3" ry="3" width="14" height="10" stroke="#4B5563" stroke-width="2" fill="none"/>
  <rect x="62" y="42" rx="3" ry="3" width="14" height="10" stroke="#4B5563" stroke-width="2" fill="none"/>
  <line x1="58" y1="47" x2="62" y2="47" stroke="#4B5563" stroke-width="2"/>
  <!-- eyes behind glasses -->
  <circle cx="51" cy="47" r="2" fill="#1E293B"/>
  <circle cx="69" cy="47" r="2" fill="#1E293B"/>
  <!-- smile -->
  <path d="M52 56 Q60 62 68 56" stroke="#1E293B" stroke-width="2" stroke-linecap="round" fill="none"/>
  <!-- laptop on shirt -->
  <rect x="48" y="82" width="24" height="16" rx="2" fill="#A5B4FC"/>
  <rect x="50" y="84" width="20" height="10" rx="1" fill="#C7D2FE"/>
</svg>