<svg xmlns="http://www.w3.org/2000/svg" viewBox="0 0 120 120" fill="none">
  <circle cx="60" cy="60" r="60" fill="#FEF3C7"/>
  <!-- jersey -->
  <path d="M38 88 Q38 74 60 70 Q82 74 82 88 L82 120 L38 120Z" fill="#3B82F6"/>
  <!-- jersey stripes -->
  <line x1="38" y1="88" x2="82" y2="88" stroke="white" stroke-width="2"/>
  <!-- neck -->
  <rect x="54" y="66" width="12" height="8" rx="3" fill="#FDDCB5"/>
  <!-- head -->
  <circle cx="60" cy="48" r="24" fill="#FDDCB5"/>
  <!-- short spiky hair -->
  <path d="M40 40 Q40 26 60 24 Q80 26 80 40 Q78 28 60 26 Q42 28 40 40Z" fill="#D4A017"/>
  <path d="M44 28 L46 22" stroke="#D4A017" stroke-width="3" stroke-linecap="round"/>
  <path d="M56 26 L56 20" stroke="#D4A017" stroke-width="3" stroke-linecap="round"/>
  <path d="M66 26 L68 20" stroke="#D4A017" stroke-width="3" stroke-linecap="round"/>
  <path d="M76 30 L78 24" stroke="#D4A017" stroke-width="3" stroke-linecap="round"/>
  <!-- eyes -->
  <circle cx="52" cy="46" r="2.5" fill="#1E293B"/>
  <circle cx="68" cy="46" r="2.5" fill="#1E293B"/>
  <!-- grin -->
  <path d="M50 55 Q60 63 70 55" stroke="#1E293B" stroke-width="2" stroke-linecap="round" fill="none"/>
  <!-- basketball -->
  <circle cx="90" cy="86" r="14" fill="#F97316"/>
  <path d="M76 86 L104 86" stroke="#C2410C" stroke-width="1.5"/>
  <path d="M90 72 L90 100" stroke="#C2410C" stroke-width="1.5"/>
  <path d="M80 76 Q90 86 80 96" stroke="#C2410C" stroke-width="1.5" fill="none"/>
</svg>