<svg xmlns="http://www.w3.org/2000/svg" viewBox="0 0 120 120" fill="none">
  <circle cx="60" cy="60" r="60" fill="#FEF9C3"/>
  <!-- cycling jersey -->
  <path d="M38 88 Q38 74 60 70 Q82 74 82 88 L82 120 L38 120Z" fill="#DC2626"/>
  <!-- jersey stripe -->
  <path d="M38 92 L82 92" stroke="#FBBF24" stroke-width="4"/>
  <!-- neck -->
  <rect x="54" y="66" width="12" height="8" rx="3" fill="#B8835A"/>
  <!-- head -->
  <circle cx="60" cy="48" r="24" fill="#B8835A"/>
  <!-- cycling helmet -->
  <path d="M34 42 Q34 18 60 16 Q86 18 86 42 L82 44 Q80 28 60 26 Q40 28 38 44Z" fill="#EF4444"/>
  <!-- helmet vents -->
  <line x1="48" y1="26" x2="48" y2="34" stroke="#DC2626" stroke-width="2"/>
  <line x1="56" y1="24" x2="56" y2="32" stroke="#DC2626" stroke-width="2"/>
  <line x1="64" y1="24" x2="64" y2="32" stroke="#DC2626" stroke-width="2"/>
  <line x1="72" y1="26" x2="72" y2="34" stroke="#DC2626" stroke-width="2"/>
  <!-- sunglasses -->
  <path d="M42 44 L50 44 Q52 44 54 46 L56 46 Q58 44 60 44 L60 44 Q62 44 64 46 L66 46 Q68 44 70 44 L78 44" stroke="#1E293B" stroke-width="2.5" fill="none"/>
  <path d="M44 44 Q44 50 52 50 Q56 48 56 46" fill="#1E293B"/>
  <path d="M64 46 Q64 50 68 50 Q76 50 76 44" fill="#1E293B"/>
  <!-- smile -->
  <path d="M52 56 Q60 62 68 56" stroke="#1E293B" stroke-width="2" stroke-linecap="round" fill="none"/>
  <!-- beard stubble dots -->
  <circle cx="50" cy="60" r="0.8" fill="#5C3A1E"/>
  <circle cx="54" cy="62" r="0.8" fill="#5C3A1E"/>
  <circle cx="58" cy="63" r="0.8" fill="#5C3A1E"/>
  <circle cx="62" cy="63" r="0.8" fill="#5C3A1E"/>
  <circle cx="66" cy="62" r="0.8" fill="#5C3A1E"/>
  <circle cx="70" cy="60" r="0.8" fill="#5C3A1E"/>
</svg>